<svg width="1200" height="220" viewBox="0 0 1200 220" xmlns="http://www.w3.org/2000/svg">
  <defs>
    <linearGradient id="skyGrad" x1="0%" y1="0%" x2="0%" y2="100%">
      <stop offset="0%" stop-color="#03040a"/>
      <stop offset="45%" stop-color="#0a1128"/>
      <stop offset="100%" stop-color="#141a3d"/>
    </linearGradient>
    <linearGradient id="meteorGrad" x1="0%" y1="0%" x2="100%" y2="0%">
      <stop offset="0%" stop-color="#e8fbff" stop-opacity="0"/>
      <stop offset="55%" stop-color="#bff6ff" stop-opacity="0.7"/>
      <stop offset="100%" stop-color="#ffffff" stop-opacity="0.95"/>
    </linearGradient>
    <radialGradient id="glow" cx="50%" cy="100%" r="75%">
      <stop offset="0%" stop-color="#22D3EE" stop-opacity="0.18"/>
      <stop offset="100%" stop-color="#22D3EE" stop-opacity="0"/>
    </radialGradient>
  </defs>

  <rect x="0" y="0" width="1200" height="220" fill="url(#skyGrad)"/>
  <rect x="0" y="0" width="1200" height="220" fill="url(#glow)"/>

  <!-- stars -->
  <g>
<circle cx="543.3" cy="80.6" r="1.71" fill="#ffffff" opacity="0.58"><animate attributeName="opacity" values="0.58;0.1;0.58" dur="3.5s" begin="2.3s" repeatCount="indefinite"/></circle>
<circle cx="224.7" cy="74.1" r="1.36" fill="#ffffff" opacity="0.78"/>
<circle cx="117.0" cy="46.0" r="0.71" fill="#ffffff" opacity="0.79"/>
<circle cx="830.2" cy="10.7" r="1.78" fill="#ffffff" opacity="0.88"/>
<circle cx="783.2" cy="88.1" r="0.79" fill="#ffffff" opacity="0.31"/>
<circle cx="633.8" cy="13.0" r="0.83" fill="#ffffff" opacity="0.45"/>
<circle cx="40.8" cy="67.6" r="1.13" fill="#ffffff" opacity="0.81"><animate attributeName="opacity" values="0.81;0.1;0.81" dur="3.6s" begin="2.6s" repeatCount="indefinite"/></circle>
<circle cx="599.7" cy="94.4" r="1.15" fill="#ffffff" opacity="0.47"/>
<circle cx="1192.2" cy="139.4" r="1.61" fill="#ffffff" opacity="0.72"/>
<circle cx="380.2" cy="36.0" r="0.95" fill="#ffffff" opacity="0.34"/>
<circle cx="916.9" cy="59.1" r="1.62" fill="#ffffff" opacity="0.53"/>
<circle cx="1145.1" cy="119.4" r="0.6" fill="#ffffff" opacity="0.43"/>
<circle cx="1088.2" cy="68.4" r="1.78" fill="#ffffff" opacity="0.54"><animate attributeName="opacity" values="0.54;0.1;0.54" dur="2.2s" begin="2.5s" repeatCount="indefinite"/></circle>
<circle cx="931.4" cy="41.4" r="0.7" fill="#ffffff" opacity="0.5"/>
<circle cx="1152.3" cy="107.3" r="0.74" fill="#ffffff" opacity="0.45"/>
<circle cx="125.2" cy="13.1" r="1.56" fill="#ffffff" opacity="0.41"/>
<circle cx="670.6" cy="65.4" r="0.83" fill="#ffffff" opacity="0.74"/>
<circle cx="160.9" cy="91.9" r="0.74" fill="#ffffff" opacity="0.55"/>
<circle cx="258.3" cy="41.4" r="1.77" fill="#ffffff" opacity="0.78"><animate attributeName="opacity" values="0.78;0.1;0.78" dur="2.9s" begin="3.5s" repeatCount="indefinite"/></circle>
<circle cx="255.7" cy="58.2" r="1.63" fill="#ffffff" opacity="0.69"/>
<circle cx="124.4" cy="138.6" r="0.86" fill="#ffffff" opacity="0.45"/>
<circle cx="924.5" cy="49.4" r="0.96" fill="#ffffff" opacity="0.34"/>
<circle cx="112.2" cy="83.7" r="0.89" fill="#ffffff" opacity="0.66"/>
<circle cx="447.3" cy="66.2" r="1.75" fill="#ffffff" opacity="0.59"/>
<circle cx="688.7" cy="122.0" r="0.82" fill="#ffffff" opacity="0.39"><animate attributeName="opacity" values="0.39;0.1;0.39" dur="4.7s" begin="3.3s" repeatCount="indefinite"/></circle>
<circle cx="301.9" cy="30.6" r="1.49" fill="#ffffff" opacity="0.86"/>
<circle cx="238.9" cy="133.3" r="1.66" fill="#ffffff" opacity="0.66"/>
<circle cx="506.5" cy="19.0" r="0.65" fill="#ffffff" opacity="0.88"/>
<circle cx="288.7" cy="100.1" r="0.91" fill="#ffffff" opacity="0.79"/>
<circle cx="714.8" cy="44.6" r="0.81" fill="#ffffff" opacity="0.73"/>
<circle cx="86.8" cy="35.8" r="1.27" fill="#ffffff" opacity="0.81"><animate attributeName="opacity" values="0.81;0.1;0.81" dur="3.8s" begin="1.1s" repeatCount="indefinite"/></circle>
<circle cx="1096.7" cy="32.5" r="0.62" fill="#ffffff" opacity="0.46"/>
<circle cx="535.4" cy="13.2" r="0.81" fill="#ffffff" opacity="0.52"/>
<circle cx="685.9" cy="22.8" r="1.03" fill="#ffffff" opacity="0.83"/>
<circle cx="1171.8" cy="93.7" r="1.43" fill="#ffffff" opacity="0.65"/>
<circle cx="172.0" cy="9.7" r="0.62" fill="#ffffff" opacity="0.85"/>
<circle cx="839.2" cy="135.0" r="0.63" fill="#ffffff" opacity="0.68"><animate attributeName="opacity" values="0.68;0.1;0.68" dur="3.4s" begin="2.9s" repeatCount="indefinite"/></circle>
<circle cx="384.5" cy="139.9" r="0.69" fill="#ffffff" opacity="0.63"/>
<circle cx="882.0" cy="126.5" r="1.48" fill="#ffffff" opacity="0.72"/>
<circle cx="949.0" cy="128.5" r="1.02" fill="#ffffff" opacity="0.71"/>
<circle cx="1077.0" cy="122.6" r="1.1" fill="#ffffff" opacity="0.77"/>
<circle cx="1032.5" cy="82.3" r="1.35" fill="#ffffff" opacity="0.53"/>
<circle cx="698.4" cy="87.2" r="0.7" fill="#ffffff" opacity="0.68"><animate attributeName="opacity" values="0.68;0.1;0.68" dur="5.0s" begin="3.5s" repeatCount="indefinite"/></circle>
<circle cx="871.6" cy="57.4" r="1.48" fill="#ffffff" opacity="0.65"/>
<circle cx="529.2" cy="118.2" r="0.7" fill="#ffffff" opacity="0.75"/>
<circle cx="40.4" cy="86.2" r="1.18" fill="#ffffff" opacity="0.44"/>
<circle cx="836.0" cy="72.1" r="1.34" fill="#ffffff" opacity="0.85"/>
<circle cx="309.4" cy="6.5" r="0.96" fill="#ffffff" opacity="0.71"/>
<circle cx="246.1" cy="27.9" r="1.69" fill="#ffffff" opacity="0.7"><animate attributeName="opacity" values="0.7;0.1;0.7" dur="3.3s" begin="3.6s" repeatCount="indefinite"/></circle>
<circle cx="394.1" cy="94.9" r="0.84" fill="#ffffff" opacity="0.56"/>
<circle cx="964.1" cy="128.4" r="1.66" fill="#ffffff" opacity="0.53"/>
<circle cx="698.9" cy="47.7" r="0.76" fill="#ffffff" opacity="0.6"/>
<circle cx="1001.1" cy="119.6" r="1.45" fill="#ffffff" opacity="0.87"/>
<circle cx="334.4" cy="27.8" r="1.14" fill="#ffffff" opacity="0.47"/>
<circle cx="259.8" cy="60.9" r="1.35" fill="#ffffff" opacity="0.6"><animate attributeName="opacity" values="0.6;0.1;0.6" dur="2.9s" begin="3.4s" repeatCount="indefinite"/></circle>
<circle cx="1173.6" cy="66.1" r="0.69" fill="#ffffff" opacity="0.32"/>
<circle cx="1043.7" cy="10.6" r="1.45" fill="#ffffff" opacity="0.64"/>
<circle cx="372.7" cy="111.9" r="0.62" fill="#ffffff" opacity="0.38"/>
<circle cx="546.3" cy="8.3" r="1.6" fill="#ffffff" opacity="0.44"/>
<circle cx="172.6" cy="11.3" r="1.36" fill="#ffffff" opacity="0.57"/>
  </g>

  <!-- static meteors (no motion) -->
  <g stroke-linecap="round">
    <line x1="90" y1="18" x2="185" y2="66" stroke="url(#meteorGrad)" stroke-width="2.2"/>
    <line x1="980" y1="12" x2="1060" y2="52" stroke="url(#meteorGrad)" stroke-width="1.8"/>
    <line x1="620" y1="30" x2="690" y2="65" stroke="url(#meteorGrad)" stroke-width="1.4"/>
    <line x1="1120" y1="60" x2="1180" y2="90" stroke="url(#meteorGrad)" stroke-width="1.6"/>
  </g>
  <!-- typing text -->
  <g font-family="'Fira Code', 'Courier New', monospace" font-size="30" fill="#22D3EE">
    <clipPath id="clipLine0">
      <rect x="231" y="136" height="44" width="0">
        <animate attributeName="width" values="0;730;730;0;0" keyTimes="0;0.11579;0.15789;0.17368;1" dur="19.0s" begin="0.0s" repeatCount="indefinite" calcMode="linear"/>
      </rect>
    </clipPath>
    <g clip-path="url(#clipLine0)">
      <text x="235" y="168">Building Scalable Full-Stack Applications</text>
    </g>    <clipPath id="clipLine1">
      <rect x="266" y="136" height="44" width="0">
        <animate attributeName="width" values="0;660;660;0;0" keyTimes="0;0.11579;0.15789;0.17368;1" dur="19.0s" begin="3.8s" repeatCount="indefinite" calcMode="linear"/>
      </rect>
    </clipPath>
    <g clip-path="url(#clipLine1)">
      <text x="270" y="168">MERN Stack Developer | DSA Enthusiast</text>
    </g>    <clipPath id="clipLine2">
      <rect x="196" y="136" height="44" width="0">
        <animate attributeName="width" values="0;800;800;0;0" keyTimes="0;0.11579;0.15789;0.17368;1" dur="19.0s" begin="7.6s" repeatCount="indefinite" calcMode="linear"/>
      </rect>
    </clipPath>
    <g clip-path="url(#clipLine2)">
      <text x="200" y="168">300+ Problems Solved on LeetCode &amp; HackerRank</text>
    </g>    <clipPath id="clipLine3">
      <rect x="231" y="136" height="44" width="0">
        <animate attributeName="width" values="0;730;730;0;0" keyTimes="0;0.11579;0.15789;0.17368;1" dur="19.0s" begin="11.4s" repeatCount="indefinite" calcMode="linear"/>
      </rect>
    </clipPath>
    <g clip-path="url(#clipLine3)">
      <text x="235" y="168">Turning Ideas Into Clean, Responsive Code</text>
    </g>    <clipPath id="clipLine4">
      <rect x="476" y="136" height="44" width="0">
        <animate attributeName="width" values="0;240;240;0;0" keyTimes="0;0.11579;0.15789;0.17368;1" dur="19.0s" begin="15.2s" repeatCount="indefinite" calcMode="linear"/>
      </rect>
    </clipPath>
    <g clip-path="url(#clipLine4)">
      <text x="480" y="168">SABARIRAJAN R</text>
    </g>  </g>
</svg>
